<svg width="31" height="30" viewBox="0 0 31 30" fill="none" xmlns="http://www.w3.org/2000/svg">
<path d="M10.1607 23.5638C8.43097 23.5638 7.02881 25.0046 7.02881 26.7819C7.02881 28.5593 8.43104 30 10.1607 30C11.8904 30 13.2926 28.5592 13.2926 26.7819C13.2927 25.0046 11.8904 23.5638 10.1607 23.5638ZM10.1607 28.5698C9.19976 28.5698 8.42078 27.7694 8.42078 26.782C8.42078 25.7946 9.19976 24.9942 10.1607 24.9942C11.1217 24.9942 11.9006 25.7946 11.9006 26.782C11.9007 27.7694 11.1217 28.5698 10.1607 28.5698Z" fill="white"/>
<path d="M23.3847 23.5638C21.655 23.5638 20.2529 25.0046 20.2529 26.7819C20.2529 28.5593 21.6551 30 23.3847 30C25.1143 30 26.5165 28.5592 26.5165 26.7819C26.5165 25.0046 25.1144 23.5638 23.3847 23.5638ZM23.3847 28.5698C22.4238 28.5698 21.6448 27.7694 21.6448 26.782C21.6448 25.7946 22.4238 24.9942 23.3847 24.9942C24.3456 24.9942 25.1246 25.7946 25.1246 26.782C25.1246 27.7694 24.3456 28.5698 23.3847 28.5698Z" fill="white"/>
<path d="M30.4489 4.79149C30.3039 4.6288 30.1057 4.52696 29.8921 4.5054L7.23757 4.18359L6.61118 2.21694C6.1699 0.902257 4.97174 0.0147148 3.61838 0H1.28681C0.902416 0 0.59082 0.320167 0.59082 0.71514C0.59082 1.11011 0.902416 1.43028 1.28681 1.43028H3.61838C4.37512 1.44746 5.04148 1.94674 5.2888 2.68179L9.70835 16.3767L9.36038 17.1991C8.97225 18.2275 9.08882 19.385 9.67358 20.3099C10.2527 21.2184 11.2271 21.7791 12.2836 21.8117H25.8207C26.205 21.8117 26.5166 21.4916 26.5166 21.0966C26.5166 20.7016 26.205 20.3815 25.8207 20.3815H12.2835C11.6869 20.3661 11.1377 20.0436 10.8219 19.5233C10.5096 19.0093 10.4455 18.3761 10.6479 17.8069L10.9264 17.1633L25.577 15.59C27.1863 15.4078 28.51 14.2052 28.883 12.5864L30.5534 5.39924C30.6287 5.19228 30.5887 4.95951 30.4489 4.79149ZM27.5258 12.2646C27.2998 13.3067 26.4388 14.0754 25.403 14.1598L10.9264 15.6973L7.68997 5.61387L29.0221 5.93568L27.5258 12.2646Z" fill="white"/>
</svg>
